<?xml version="1.0" encoding="UTF-8"?>
<!DOCTYPE svg  PUBLIC '-//W3C//DTD SVG 20010904//EN'  'http://www.w3.org/TR/2001/REC-SVG-20010904/DTD/svg10.dtd'>
<svg width="1279pt" height="107pt" version="1.0" viewBox="0 0 1279.000000 107.000000" xmlns="http://www.w3.org/2000/svg">
<metadata>Created by potrace 1.15, written by Peter Selinger 2001-2017</metadata>
<g transform="translate(0 107) scale(.1 -.1)">
<path d="m5855 1026c-148-37-249-138-262-261-7-62 7-109 44-151 50-56 101-66 136-26 34 39 31 61-12 102-23 22-41 48-41 59 0 30 56 88 97 102 59 19 147 7 196-27 81-57 139-196 116-277-23-84-130-160-247-175-66-9-180 7-262 36-30 11-120 46-200 79-196 82-248 96-350 95-104 0-166-22-328-115l-114-65-83 44c-159 85-324 123-473 109-93-8-166-32-283-90l-88-45-178 90c-98 49-221 112-273 141-214 117-508 232-665 259-38 7-92 16-118 21s-95 9-151 9c-177 0-344-63-636-241-357-218-421-255-495-290-187-88-487-94-721-14-135 46-308 147-413 241-76 69-62 28 17-47 87-83 145-125 262-187 186-99 361-142 575-142 120 1 190 10 286 39 49 15 267 127 499 256 312 174 494 245 625 245 84 0 243-25 352-54 176-48 346-125 726-329l158-85-123-61c-154-76-203-91-303-91-173 0-329 58-715 267-364 197-478 225-619 153-54-27-117-92-131-135-17-53-9-220 13-262 27-50 82-100 150-135 57-30 70-32 157-32 84 0 101 3 147 27 114 59 151 183 82 271-24 30-69 35-93 10-24-23-20-44 15-80l30-31-26-31c-87-103-241-35-270 120-8 45 23 111 63 132 90 46 170 23 489-138 136-69 284-139 328-156 215-83 427-104 561-56 69 25 246 117 313 162 33 22 36 22 70 7 74-32 239-85 326-105 57-12 143-22 235-25 176-6 244 8 443 93 73 31 161 68 197 84 189 79 236 73 610-78 238-96 401-122 555-87 97 21 222 85 286 145l49 46 49-46c64-60 189-124 286-145 154-35 317-9 555 87 372 151 406 156 602 82 61-23 67-28 58-45-12-22-7-24 18-8 14 9 42 1 139-40 190-80 259-94 433-88 163 6 268 26 430 82 58 20 110 37 115 37 6 1 35-14 65-32 85-51 205-109 268-131 119-41 338-18 536 57 50 19 203 91 339 160 319 161 400 183 489 138 40-21 71-87 63-132-29-155-183-223-270-120l-26 31 30 31c35 36 39 57 15 80-24 25-69 20-93-10-70-89-33-211 82-271 46-24 63-27 147-27 85 0 101 3 150 28 80 42 107 65 143 120 29 45 32 58 35 147 5 118-6 158-61 211-48 46-95 72-161 89-81 20-238-22-396-108-523-284-671-343-855-343-96 0-145 14-284 81l-106 50 160 85c438 232 592 302 768 350 109 29 268 54 352 54 131 0 313-71 625-245 232-129 450-241 499-256 138-42 343-52 498-25 236 42 486 171 647 335 72 73 68 93-5 27-105-94-278-195-413-241-108-37-221-55-347-55-160 0-270 20-374 69-74 35-138 72-495 290-292 178-459 241-636 241-56 0-125-4-151-9s-79-14-118-21c-157-28-453-143-665-259-52-29-185-97-296-152l-200-99-105 54c-57 30-131 63-164 74-166 56-386 31-577-64-37-19-71-34-76-34s-49 23-98 51c-136 79-203 101-304 101-102 1-154-13-350-95-80-33-170-68-200-79-82-29-196-45-262-36-117 15-224 91-247 175-23 81 35 220 116 277 49 34 137 46 196 27 41-14 97-72 97-102 0-11-18-37-41-59-33-31-39-43-34-62 16-52 66-78 108-57 32 17 75 69 88 108 14 42 6 128-16 170-58 113-202 191-352 191-118 0-268-65-360-156l-63-62-62 62c-126 124-315 181-473 142zm-1470-554c75-21 154-53 187-77 21-14 19-15-43-43-35-16-89-35-119-43-69-17-252-18-345 0-78 14-236 59-247 70-13 12 159 94 225 108 84 17 253 10 342-15zm4254 17c41-7 100-28 156-56 141-71 139-68 59-91-115-33-204-46-319-47-129 0-187 13-309 69l-89 40 61 27c51 23 118 42 217 63 41 8 161 6 224-5z"/>
</g>
</svg>
