<?xml version="1.0" encoding="UTF-8"?>
<svg clip-rule="evenodd" fill-rule="evenodd" stroke-linejoin="round" stroke-miterlimit="1.414" viewBox="0 0 410 200" xmlns="http://www.w3.org/2000/svg">
<g fill-rule="nonzero">
<path d="m20.848 97.82c0 7.181 0.937 14.085 2.812 20.711 1.874 6.625 4.494 12.845 7.86 18.658a75.408 75.408 0 0 0 12.141 15.774 80.734 80.734 0 0 0 15.72 12.183c5.752 3.42 11.929 6.048 18.532 7.887 6.603 1.838 13.484 2.757 20.641 2.757 8.265 0 16.125-1.24 23.58-3.719 7.455-2.48 14.335-5.856 20.641-10.131a15.417 15.417 0 0 1 3.898 -1.796 14.656 14.656 0 0 1 4.281 -0.641c2.471 0 4.622 0.428 6.454 1.283a17.142 17.142 0 0 1 4.921 3.462l1.278 1.283c-8.52 8.207-18.319 14.64-29.395 19.3-11.077 4.659-22.963 6.989-35.658 6.989-12.951 0-25.093-2.458-36.425-7.374s-21.237-11.627-29.715-20.134c-8.477-8.506-15.166-18.466-20.065-29.88-4.899-11.413-7.349-23.617-7.349-36.612s2.45-25.199 7.349-36.613c4.899-11.413 11.588-21.373 20.065-29.88 8.478-8.506 18.383-15.218 29.715-20.133 11.332-4.916 23.474-7.374 36.425-7.374 12.866 0 24.794 2.329 35.785 6.989 10.992 4.659 20.748 11.135 29.268 19.428l-1.278 1.154c-1.534 1.539-3.238 2.736-5.112 3.591-1.875 0.855-3.962 1.283-6.263 1.283-2.982 0-5.709-0.855-8.179-2.565-6.306-4.36-13.164-7.759-20.577-10.195-7.413-2.437-15.294-3.655-23.644-3.655-7.157 0-14.038 0.919-20.641 2.757s-12.78 4.467-18.532 7.887a80.657 80.657 0 0 0 -15.72 12.183 75.428 75.428 0 0 0 -12.141 15.773c-3.366 5.814-5.986 12.033-7.86 18.659-1.875 6.626-2.812 13.529-2.812 20.711z"/>
<path d="M156.194 93.588h-6.326V73.647h-24.667v19.941h-6.326V47.646h6.326v19.653h24.667V47.646h6.326v45.942zM168.527 47.646h6.326v45.942h-6.326zM187.091 93.588V47.646h17.19a22.497 22.497 0 0 1 11.551 3.142 23.31 23.31 0 0 1 4.632 3.606 23.332 23.332 0 0 1 3.595 4.649 22.729 22.729 0 0 1 3.131 11.59 22.716 22.716 0 0 1-3.131 11.59 23.326 23.326 0 0 1-3.595 4.648 22.838 22.838 0 0 1-4.632 3.591 22.962 22.962 0 0 1-5.464 2.308 22.497 22.497 0 0 1-6.087.818h-17.19zm17.19-6.348c2.279 0 4.425-.433 6.438-1.298a16.645 16.645 0 0 0 5.272-3.559 16.926 16.926 0 0 0 3.563-5.29c.873-2.02 1.31-4.173 1.31-6.46s-.437-4.44-1.31-6.46a16.926 16.926 0 0 0-3.563-5.29 16.856 16.856 0 0 0-5.272-3.575c-2.013-.876-4.159-1.314-6.438-1.314h-10.863V87.24h10.863zM236.776 47.646h6.326v45.942h-6.326zM294.001 93.588h-5.144l-26.169-35.875a3.71 3.71 0 0 1-.431-.786 8.808 8.808 0 0 1-.304-.881 12.478 12.478 0 0 1-.223-1.026v38.568h-6.327V47.646h4.506c1.022 0 1.917.149 2.683.449.767.299 1.374.758 1.822 1.378l22.206 30.682c.575.833.927 1.891 1.054 3.174V47.646h6.327v45.942zM354.549 93.588h-6.327V57.007a4.618 4.618 0 0 0-.096.433l-.143.77c-.054.288-.117.577-.192.865a4.711 4.711 0 0 1-.24.722l-14.697 33.791h-6.167l-14.666-33.759a2.53 2.53 0 0 1-.223-.577 14.102 14.102 0 0 1-.304-1.395 3.236 3.236 0 0 1-.048-.465v36.196h-6.326V47.646h5.24a4.83 4.83 0 0 1 2.732.817 4.854 4.854 0 0 1 1.805 2.132l14.282 32.862c.171.427.304.871.4 1.33.095.46.154.957.175 1.491.064-1.068.267-2.009.607-2.821l14.283-32.862a4.763 4.763 0 0 1 1.853-2.164 4.947 4.947 0 0 1 2.684-.785h5.368v45.942zM378.864 47.646h6.166L405 93.588h-3.642a4.888 4.888 0 0 1-2.716-.786c-.81-.523-1.417-1.245-1.822-2.164l-3.195-7.309h-23.388l-3.163 7.309a4.729 4.729 0 0 1-1.806 2.148c-.82.535-1.73.802-2.731.802h-3.643l19.97-45.942zm2.492 10.131l-8.339 19.204h17.86l-8.339-19.204c-.341-.748-.543-1.657-.607-2.725a11.447 11.447 0 0 1-.208 1.474 8.12 8.12 0 0 1-.367 1.251z"/>
<path d="M120.153 124.034c0 1.796.234 3.521.703 5.178a20.354 20.354 0 0 0 1.965 4.665 18.874 18.874 0 0 0 3.035 3.943 20.21 20.21 0 0 0 3.93 3.046 18.954 18.954 0 0 0 4.633 1.971c1.651.46 3.371.69 5.16.69 2.067 0 4.032-.31 5.895-.93a20.904 20.904 0 0 0 5.161-2.533c.298-.192.623-.342.974-.449.352-.106.708-.16 1.071-.16.617 0 1.155.107 1.613.321a4.27 4.27 0 0 1 1.23.865l.32.321a23.793 23.793 0 0 1-7.349 4.825c-2.769 1.165-5.741 1.747-8.915 1.747-3.237 0-6.273-.614-9.106-1.843s-5.309-2.907-7.428-5.034c-2.12-2.126-3.792-4.616-5.017-7.47-1.225-2.853-1.837-5.904-1.837-9.153 0-3.249.612-6.3 1.837-9.153 1.225-2.853 2.897-5.343 5.017-7.47 2.119-2.127 4.595-3.804 7.428-5.033 2.833-1.229 5.869-1.844 9.106-1.844 3.217 0 6.199.583 8.947 1.747a23.6 23.6 0 0 1 7.317 4.858l-.32.288a4.33 4.33 0 0 1-1.278.898 3.72 3.72 0 0 1-1.565.32 3.509 3.509 0 0 1-2.045-.641 19.973 19.973 0 0 0-5.145-2.549c-1.853-.609-3.823-.913-5.911-.913-1.789 0-3.509.229-5.16.689a18.995 18.995 0 0 0-4.633 1.972 20.244 20.244 0 0 0-3.93 3.045 18.854 18.854 0 0 0-3.035 3.944 20.317 20.317 0 0 0-1.965 4.665 18.909 18.909 0 0 0-.703 5.177zM158.271 124.034c0-3.249.612-6.3 1.837-9.153 1.225-2.853 2.902-5.343 5.033-7.47 2.13-2.127 4.611-3.804 7.444-5.033 2.833-1.229 5.869-1.844 9.106-1.844 3.238 0 6.279.615 9.123 1.844 2.843 1.229 5.325 2.906 7.444 5.033 2.12 2.127 3.792 4.617 5.017 7.47 1.224 2.853 1.837 5.904 1.837 9.153 0 3.249-.613 6.3-1.837 9.153-1.225 2.854-2.897 5.344-5.017 7.47-2.119 2.127-4.601 3.805-7.444 5.034-2.844 1.229-5.885 1.843-9.123 1.843-3.237 0-6.273-.614-9.106-1.843s-5.314-2.907-7.444-5.034c-2.131-2.126-3.808-4.616-5.033-7.47-1.225-2.853-1.837-5.904-1.837-9.153zm3.994 0c0 1.796.234 3.521.703 5.178a20.354 20.354 0 0 0 1.965 4.665 18.874 18.874 0 0 0 3.035 3.943 20.18 20.18 0 0 0 3.93 3.046 18.954 18.954 0 0 0 4.633 1.971c1.651.46 3.371.69 5.16.69 1.79 0 3.51-.23 5.161-.69 1.65-.459 3.2-1.116 4.649-1.971a19.57 19.57 0 0 0 3.93-3.046 19.647 19.647 0 0 0 3.035-3.943 19.342 19.342 0 0 0 2.652-9.843c0-2.693-.511-5.22-1.534-7.582-1.022-2.362-2.412-4.424-4.169-6.188-1.758-1.763-3.813-3.157-6.167-4.183-2.354-1.026-4.873-1.539-7.557-1.539-1.789 0-3.509.229-5.16.689a18.995 18.995 0 0 0-4.633 1.972 20.214 20.214 0 0 0-3.93 3.045 18.854 18.854 0 0 0-3.035 3.944 20.317 20.317 0 0 0-1.965 4.665 18.909 18.909 0 0 0-.703 5.177zM213.611 147.021v-45.942h16.838c2.109 0 4.138.273 6.087.818 1.949.545 3.77 1.32 5.464 2.324a23.32 23.32 0 0 1 4.633 3.607 23.336 23.336 0 0 1 3.594 4.649 22.719 22.719 0 0 1 3.131 11.589 22.729 22.729 0 0 1-3.131 11.59 23.365 23.365 0 0 1-3.594 4.649 22.803 22.803 0 0 1-4.633 3.59 22.965 22.965 0 0 1-5.464 2.309 22.497 22.497 0 0 1-6.087.817h-16.838zm16.838-4.007c2.62 0 5.075-.497 7.365-1.491 2.29-.994 4.292-2.346 6.007-4.056 1.715-1.71 3.067-3.719 4.058-6.027.99-2.308 1.486-4.766 1.486-7.374 0-2.607-.496-5.065-1.486-7.374-.991-2.308-2.343-4.322-4.058-6.043a19.16 19.16 0 0 0-6.007-4.071c-2.29-.994-4.745-1.491-7.365-1.491h-12.844v37.927h12.844zM289.08 147.021h-27.286v-45.942h27.286v4.008h-23.292v16.735h18.851v4.008h-18.851v17.184h23.292v4.007zM315.408 107.107c-.49-.342-.921-.663-1.294-.962a6.712 6.712 0 0 0-1.198-.77 6.719 6.719 0 0 0-1.454-.513c-.543-.128-1.241-.192-2.093-.192a9.887 9.887 0 0 0-3.514.625 9.992 9.992 0 0 0-2.924 1.683 8.068 8.068 0 0 0-1.997 2.469 6.361 6.361 0 0 0-.735 2.981c0 1.197.155 2.181.464 2.95.308.769.83 1.448 1.565 2.036.735.588 1.704 1.133 2.908 1.635a84.15 84.15 0 0 0 4.457 1.683c.937.342 1.811.663 2.62.962a49.54 49.54 0 0 1 2.301.914c.724.309 1.4.641 2.028.993.629.353 1.231.754 1.806 1.203 1.491 1.154 2.54 2.564 3.147 4.232.607 1.667.911 3.494.911 5.482 0 2.009-.395 3.815-1.183 5.418a12.384 12.384 0 0 1-3.195 4.088c-1.342 1.122-2.913 1.982-4.713 2.58-1.8.599-3.711.898-5.735.898-3.983 0-7.338-1.186-10.065-3.559a16.57 16.57 0 0 1-3.163-3.879l.479-.288c.703-.406 1.374-.609 2.013-.609.512 0 1.002.069 1.47.208.469.139.884.39 1.246.753.874.813 1.667 1.438 2.381 1.876.713.438 1.384.759 2.013.962a7.717 7.717 0 0 0 1.821.368c.586.043 1.187.075 1.805.097a13.607 13.607 0 0 0 3.85-.433 10.405 10.405 0 0 0 3.483-1.603 8.752 8.752 0 0 0 2.524-2.806c.65-1.132.975-2.49.975-4.071 0-1.753-.256-3.158-.767-4.216a6.813 6.813 0 0 0-2.125-2.581c-.905-.662-1.976-1.213-3.211-1.651a138.281 138.281 0 0 1-3.994-1.491c-1.811-.726-3.461-1.4-4.953-2.02-1.491-.619-2.763-1.351-3.818-2.196a8.724 8.724 0 0 1-2.46-3.126c-.586-1.239-.879-2.842-.879-4.809 0-1.795.394-3.419 1.183-4.873a12.663 12.663 0 0 1 3.051-3.735 13.968 13.968 0 0 1 4.218-2.404 13.75 13.75 0 0 1 4.712-.85c1.342 0 2.562.177 3.659.529a14.27 14.27 0 0 1 3.003 1.347 14.729 14.729 0 0 1 2.46 1.843 39.95 39.95 0 0 1 2.029 2.02l-.99.705a3.256 3.256 0 0 1-.879.465c-.33.118-.729.177-1.198.177-.788 0-1.47-.182-2.045-.545z"/>
<path d="M331.457 136.145c0-.598.112-1.159.336-1.683a4.351 4.351 0 0 1 2.3-2.308 4.192 4.192 0 0 1 1.678-.337 4.19 4.19 0 0 1 1.677.337 4.338 4.338 0 0 1 2.301 2.308c.223.524.335 1.085.335 1.683 0 2.287-.426 4.366-1.278 6.236-.852 1.87-2.237 3.617-4.154 5.242l-.479-.513c-.277-.278-.415-.663-.415-1.155 0-.598.106-1.09.319-1.474.213-.385.442-.754.687-1.106.245-.353.474-.748.687-1.187.213-.438.32-1.01.32-1.715h-.384a4.038 4.038 0 0 1-1.549-.433 4.373 4.373 0 0 1-1.247-.945 4.39 4.39 0 0 1-.83-1.331 4.278 4.278 0 0 1-.304-1.619zm0-24.045c0-.598.112-1.159.336-1.683a4.351 4.351 0 0 1 2.3-2.308 4.192 4.192 0 0 1 1.678-.337 4.19 4.19 0 0 1 1.677.337 4.338 4.338 0 0 1 2.301 2.308c.223.524.335 1.085.335 1.683a4.25 4.25 0 0 1-.335 1.683 4.357 4.357 0 0 1-2.301 2.309 4.207 4.207 0 0 1-1.677.336 4.209 4.209 0 0 1-1.678-.336 4.357 4.357 0 0 1-2.3-2.309 4.233 4.233 0 0 1-.336-1.683z"/>
</g>
</svg>
